<svg xmlns="http://www.w3.org/2000/svg" width="64" height="64" viewBox="0 0 64 64"><g transform="translate(17652 19998)"><circle cx="32" cy="32" r="32" transform="translate(-17652 -19998)" fill="#fff"/><g transform="translate(-17701.814 -19981.932)"><path d="M70.261,25.657H93.367V13.109H70.261Zm8.556-6.079,3.66-4.392a.34.34,0,0,1,.589.308,27.386,27.386,0,0,1-.857,2.8h2.3a.339.339,0,0,1,.246.571l-4.159,4.456a.34.34,0,0,1-.557-.373l1.287-2.814H79.078a.34.34,0,0,1-.261-.557Zm11.8-12.75a2.383,2.383,0,0,1-1.119-1.517h-15.5a2.36,2.36,0,0,1-1.425,1.3,3.368,3.368,0,0,0-2.308,3.2v2.64H93.367V10.374C93.367,7.869,90.987,7.147,90.612,6.828ZM70.261,29.392a2.463,2.463,0,0,0,2.462,2.462H90.9a2.463,2.463,0,0,0,2.462-2.462V26.312H70.261ZM73.9,4.654H89.726A1.48,1.48,0,0,0,91.2,3.177V1.486A1.48,1.48,0,0,0,89.726.009H73.9a1.48,1.48,0,0,0-1.477,1.477V3.177A1.48,1.48,0,0,0,73.9,4.654Z" transform="translate(0)" fill="#33bd8c"/></g></g></svg>