<svg xmlns="http://www.w3.org/2000/svg" xmlns:xlink="http://www.w3.org/1999/xlink" width="90" height="125" viewBox="0 0 90 125"><defs><clipPath id="a"><path d="M0,0H90a0,0,0,0,1,0,0V113a12,12,0,0,1-12,12H0a0,0,0,0,1,0,0V0A0,0,0,0,1,0,0Z" transform="translate(840 246)" fill="#f1fffa"/></clipPath></defs><g transform="translate(-840 -246)" clip-path="url(#a)"><g transform="translate(771.739 247.991)" opacity="0.14"><path d="M70.261,104.709h94.324V53.488H70.261Zm34.928-24.814,14.942-17.931a1.386,1.386,0,0,1,2.4,1.255c-1.415,5.076-3.239,11.435-3.5,11.435h9.381a1.384,1.384,0,0,1,1.005,2.333L112.444,95.179a1.387,1.387,0,0,1-2.275-1.523l5.255-11.487h-9.17a1.387,1.387,0,0,1-1.065-2.274ZM153.34,27.845a9.729,9.729,0,0,1-4.57-6.192H85.5a9.633,9.633,0,0,1-5.816,5.307,13.748,13.748,0,0,0-9.422,13.067V50.8h94.324V42.32C164.585,32.094,154.87,29.15,153.34,27.845ZM70.261,119.958a10.055,10.055,0,0,0,10.051,10.052h74.221a10.055,10.055,0,0,0,10.052-10.052V107.387H70.261ZM85.124,18.973h64.6a6.04,6.04,0,0,0,6.031-6.031V6.04A6.04,6.04,0,0,0,149.722.009h-64.6A6.04,6.04,0,0,0,79.093,6.04v6.9A6.04,6.04,0,0,0,85.124,18.973Z" transform="translate(0 0)" fill="#33bd8c"/></g></g></svg>